<?xml version="1.0" standalone="no"?><!DOCTYPE svg PUBLIC "-//W3C//DTD SVG 1.1//EN" "http://www.w3.org/Graphics/SVG/1.1/DTD/svg11.dtd"><svg t="1613638747598" class="icon" viewBox="0 0 1024 1024" version="1.1" xmlns="http://www.w3.org/2000/svg" p-id="1877" xmlns:xlink="http://www.w3.org/1999/xlink" width="32" height="32"><defs><style type="text/css"></style></defs><path d="M610.21 928.01c-55.88 0-111.19-8.59-164.89-25.64-71.02-22.55-134.49-58.69-188.63-107.4-51.43-46.28-93.18-103.72-120.74-166.11C109.71 569.41 96.26 506.93 96 443.15c-0.27-66.39 13.83-130.97 41.92-191.95 5.25-11.4 11.05-22.78 17.24-33.81a475.226 475.226 0 0 1 36.42-55.34c18.66-24.47 43.99-43.26 73.23-54.33 30.03-11.37 62.1-13.75 92.73-6.88 4.13 0.92 8.28 2.01 12.35 3.23 32.65 9.8 61.06 28.4 82.16 53.8 20.86 25.11 33.3 55.18 35.96 86.96 1.85 21.11-0.78 42.2-7.8 62.68-14.82 43.22-48.42 78.66-92.17 97.22-25.96 11.01-42.18 32.85-42.34 56.99-0.59 91.28 62.06 171.53 155.9 199.69 2.5 0.75 5.01 1.59 7.68 2.49 12.38 4.16 27.78 9.33 45.49 5.85 22.87-4.49 45.92-22.83 68.52-54.5 30.1-42.18 86.25-65.58 146.55-61.08 12.76 0.83 25.7 3.2 38.46 7.03 38.94 11.69 72.55 41.82 94.64 84.83 24.9 48.49 30.91 106.2 15.68 150.61l-0.18 0.53c-11.05 32-34.63 58.35-66.41 74.2-15.82 7.88-35.03 1.46-42.92-14.36s-1.46-35.03 14.36-42.92c16.68-8.32 28.92-21.74 34.47-37.8l0.16-0.47c9.61-28.03 4.87-67.52-12.1-100.56-14.07-27.39-33.99-46.13-56.11-52.77-8.18-2.46-16.37-3.96-24.34-4.47l-0.36-0.03c-37.61-2.83-72.86 10.67-89.81 34.42-77.59 108.72-156.71 82.14-186.49 72.13-2.25-0.76-4.19-1.41-5.69-1.86-59.68-17.92-110.5-52.67-146.96-100.49-35.53-46.62-54.9-103.76-54.53-160.91 0.16-25.05 8.24-49.27 23.36-70.05 14.35-19.73 34.4-35.44 57.99-45.45 27.05-11.48 47.69-33.01 56.63-59.07 4.11-11.98 5.65-24.22 4.58-36.37 0-0.05-0.01-0.1-0.01-0.15-3.27-39.27-31.83-72.58-72.75-84.86-2.62-0.79-5.3-1.49-7.95-2.08-36.98-8.3-77.6 6.81-101.07 37.58a412.61 412.61 0 0 0-31.5 47.86 417.022 417.022 0 0 0-14.92 29.26C148.29 381.67 147.74 497.1 194.5 603c49.8 112.78 148.28 199.66 270.19 238.37 56.73 18.01 115.5 25.33 174.69 21.76 17.65-1.07 32.81 12.37 33.87 30.01 1.07 17.64-12.37 32.81-30.01 33.87-11.03 0.67-22.04 1-33.03 1z" p-id="1878"></path></svg>